<?xml version="1.0" encoding="utf-8"?>
<!-- Generator: Adobe Illustrator 19.0.0, SVG Export Plug-In . SVG Version: 6.00 Build 0)  -->
<svg version="1.1" id="Layer_1" xmlns="http://www.w3.org/2000/svg" xmlns:xlink="http://www.w3.org/1999/xlink" x="0px" y="0px"
	 viewBox="0 0 1920 1080" style="enable-background:new 0 0 1920 1080;" xml:space="preserve">
<style type="text/css">
	.st0{stroke:#000000;stroke-miterlimit:10;}
</style>
<g id="XMLID_2_">
	<path id="XMLID_44_" class="st0" d="M406.8,813.5h-12.3V935c0,11.6,0.7,20.1,1.6,25.5c0.9,5.4,2.9,9.2,5.6,11.3
		c2.8,2.1,7,3.2,12.6,3.2c26.3,0,39.4-28.1,39.4-84.3c0-25.2-3.8-44.3-11.3-57.4C434.9,820,423,813.5,406.8,813.5z"/>
	<path id="XMLID_45_" class="st0" d="M1390.6,734.9c0-26.3-2.7-46.2-8.2-59.7c-5.5-13.5-14.4-20.2-26.9-20.2
		c-5.1,0-8.8,1.1-11.2,3.4c-2.4,2.3-4.3,6.3-5.2,12c-0.9,5.7-1.6,14.4-1.6,26v118.2h12.6c15.5,0,26.1-6.9,31.9-20.8
		C1387.7,779.8,1390.6,760.2,1390.6,734.9z"/>
	<path id="XMLID_46_" class="st0" d="M1317.7,386.2c8.2,13.8,17.4,20.7,27.3,20.7c10.4,0,19.6-7.1,27.5-21.4
		c7.9-14.2,14-34.2,18.2-59.9c4.2-25.7,6.4-55,6.4-88.1c0-33.4-2.4-62.7-7.2-88.1c-4.8-25.4-11.3-44.9-19.6-58.7
		c-8.3-13.8-17.4-20.7-27.3-20.7c-10.4,0-19.6,7.1-27.5,21.4c-7.9,14.2-14,34.2-18.2,59.9c-4.2,25.7-6.4,55-6.4,88.1
		c0,33.4,2.4,62.7,7.2,88.1C1302.9,352.8,1309.4,372.4,1317.7,386.2z"/>
	<path id="XMLID_47_" class="st0" d="M1155.4,206.3c4.9-14.2,7.4-33.2,7.4-57c0-24-2.2-41.8-6.7-53.7c-4.5-11.9-11.5-17.8-21.1-17.8
		c-5.1,0-8.8,1.1-11.2,3.4c-2.4,2.3-4,6.3-4.9,12c-0.9,5.7-1.3,14.4-1.3,26v108.4h12.1C1141.8,227.5,1150.4,220.6,1155.4,206.3z"/>
	<path id="XMLID_48_" class="st0" d="M432.9,783.9c4.9-14.2,7.4-33.4,7.4-57.2c0-24-2.2-41.9-6.7-53.8
		c-4.5-11.9-11.5-17.9-21.1-17.9c-5.1,0-8.8,1.1-11.2,3.4c-2.4,2.3-4.3,6.3-5.2,12c-0.9,5.7-1.6,14.4-1.6,25.9v109.2h12.6
		C419.3,805.5,427.9,798.2,432.9,783.9z"/>
	<path id="XMLID_49_" class="st0" d="M1176.3,313.4c0-25.2-3.8-44.2-11.3-57.3c-7.6-13.2-19.4-19.5-35.7-19.5h-11.8v121.3
		c0,11.6,0.4,20.1,1.3,25.5c0.9,5.4,2.7,9.2,5.5,11.3c2.8,2.1,6.9,3.2,12.6,3.2C1163.2,397.7,1176.3,369.6,1176.3,313.4z"/>
	<path id="XMLID_50_" class="st0" d="M1594.9,90.7c-8.3-13.8-17.4-20.7-27.3-20.7c-10.4,0-19.6,7.1-27.5,21.4
		c-7.9,14.2-14,34.2-18.2,59.9c-4.2,25.7-6.4,55-6.4,88.1c0,33.4,2.4,62.7,7.2,88.1c4.8,25.4,11.3,44.9,19.6,58.7
		c8.2,13.8,17.4,20.7,27.3,20.7c10.4,0,19.6-7.1,27.5-21.4c7.9-14.2,14-34.2,18.2-59.9c4.2-25.7,6.4-55,6.4-88.1
		c0-33.4-2.4-62.7-7.2-88.1C1609.6,124.1,1603.1,104.5,1594.9,90.7z"/>
	<path id="XMLID_53_" class="st0" d="M-0.5-0.5v1080h1920V-0.5H-0.5z M1051.5,399.1c6-0.6,10.6-1.9,13.5-3.9c2.9-2,4.9-5.6,5.9-11
		c1-5.4,1.5-14.2,1.5-26.4V119.1c0-12.2-0.6-21-1.6-26.4c-1-5.4-2.9-9.1-5.8-11c-3-2-7.6-3.2-13.6-3.9v-9.6l87.2,0.5
		c22.7,0,39.9,6.9,51.9,20.7c12,13.8,17.9,32.1,17.9,55c0,18.5-5,35.7-14.6,51.8c-9.5,16.1-23.5,27-42.5,32.8v0.9
		c25,3.3,42.8,12.9,54.3,28.9c11.5,16,17.4,34.9,17.4,56.8c0,29.8-6.8,52.6-20.6,68.8c-13.8,16.2-32.9,24.2-57.4,24.2h-93.7V399.1z
		 M801.5,399.1c6-0.6,10.7-1.9,13.7-3.9c2.9-2,4.9-5.6,5.9-11c1-5.4,1.4-14.2,1.4-26.4V119.1c0-12.2-0.4-21-1.4-26.4
		c-1-5.4-3-9.1-5.9-11c-3-2-7.7-3.2-13.7-3.9v-9.3h151.4c-1.3,26-1.9,49.9-1.9,70.8c0,14.1,0.3,25.2,0.8,32.2h-6.5
		c-2.9-34-7.9-57.9-15.3-71.7c-7.3-13.8-17.7-20.3-31.2-20.3h-11.6c-5.8,0-10,0.7-12.7,2.3c-2.7,1.6-4.6,4.7-5.5,9.3
		c-0.9,4.6-1.5,12-1.5,22.4v119h9.2c10,0,17.7-6,22.9-18.5c5.2-12.4,8.8-27.5,10.9-44.5h6.5c-0.6,13-0.4,28.2-0.4,45v23
		c0,16.3,0.2,39,1.3,68h-6.5c-4-42-15.5-63-34.6-63h-9.2v120.9c0,10.3,0.6,17.8,1.5,22.4c0.9,4.6,2.8,7.7,5.4,9.3
		c2.7,1.6,7,2.4,12.8,2.4h14c13.4,0,24.1-7.6,32.4-23.2c8.2-15.6,14-41.8,17.4-78.8h6.5c-0.6,10-0.8,23.7-0.8,40.2
		c0,29.4,0.6,53.8,1.9,72.8H801.5V399.1z M558,68.5c-1.4,30-2.1,57.6-2.1,81.5c0,15,0.3,27.5,1,36.5h-6.5c-4.6-39-10.8-67-18.7-83.1
		c-7.8-16-18.5-23.9-32.1-23.9h-6.2V354c0,13.5,0.7,23.2,2.3,29.2c1.6,6,4.4,10.1,8.4,12.2c4.1,2.1,10.3,3.3,19.3,3.6v9.4h-106v-9.4
		c9-0.3,15.5-1.5,19.5-3.6c4.1-2.1,7.2-6.2,8.8-12.2c1.6-6,2.7-15.8,2.7-29.2V79.5h-6.6c-9,0-16.7,3.2-23,10
		c-6.3,6.7-11.8,17.8-16.3,33.4c-4.6,15.6-8.5,36.7-11.7,63.7h-6.5c0.6-9,1-21.4,1-36.5c0-24-0.7-51.5-2.1-81.5H558z M131.5,77.8
		c-7,0.6-11.1,1.9-13.9,3.9c-2.9,2-4.7,5.6-5.7,11c-1,5.4-1.4,14.2-1.4,26.4v238.6c0,12.2,0.3,21,1.3,26.4c1,5.4,3,9.1,5.8,11
		c2.9,2,6.8,3.3,13.8,3.9v9.4h-88v-9.4c7-0.6,10.9-1.9,13.9-3.9c2.9-2,5.3-5.6,6.3-11c1-5.4,1.8-14.2,1.8-26.4V119.1
		c0-12.2-0.7-21-1.7-26.4c-1-5.4-3.3-9.1-6.3-11c-3-2-7-3.2-14-3.9v-9.3h88V77.8z M285.1,373.4c-6.2,14-14.7,24.5-25.4,31.6
		c-10.7,7-22.5,10.6-35.5,10.6c-10.6,0-19.4-1.6-26.3-4.8c-7-3.2-13.4-7.6-19.3-13c-4.1-4.5-7.3-6.8-9.5-6.8c-1.8,0-3.1,1.9-4,5.3
		c-0.9,3.4-1.7,8.3-2.2,16.3h-6.5c0.7-21,1.1-64,1.1-130h6.5c1.3,36,6,65,14.1,87.2c8.1,22.2,20.6,33.3,37.5,33.3
		c10.1,0,18.5-4.7,25.2-13.9c6.6-9.2,10-22.6,10-39.9c0-18-3.4-33.4-10.2-46.2c-6.8-12.8-17.6-27.2-32.4-43.3
		c-11.2-12.5-20.3-23.4-27.1-32.8c-6.8-9.3-12.4-20.3-16.7-32.9c-4.3-12.6-6.5-27.3-6.5-44c0-19.3,2.9-35.5,8.6-48.9
		c5.8-13.3,13.5-23.2,23.1-29.6c9.6-6.4,20.2-9.6,31.7-9.6c9.8,0,17.6,1.6,23.4,4.8c5.9,3.2,11.8,7.9,17.9,14c2,2,3.8,3.7,5.5,4.9
		c1.6,1.3,3,1.9,4.1,1.9c1.7,0,3.1-1.6,4-5c0.9-3.4,1.7-9,2.2-16h6.5c-0.9,21-1.4,58-1.4,109h-6.5c-0.7-17-3-33.7-6.9-49.4
		c-3.9-15.7-9.4-28.3-16.5-38c-7.1-9.7-15.3-14.5-24.7-14.5c-9.2,0-16.7,4.4-22.5,13.2c-5.8,8.8-8.6,20.7-8.6,35.7
		c0,11.3,1.4,21.1,4.2,29.5c2.8,8.4,6.8,16,11.9,22.9c5.1,6.9,12.9,16.2,23.4,28l9.1,10.8c11.2,12.4,19.9,23.2,26.3,32.5
		c6.4,9.3,11.6,20.2,15.7,32.5c4.1,12.4,6.1,26.7,6.1,43C294.4,342.1,291.3,359.4,285.1,373.4z M480.1,961.4
		c-13.8,16.2-32.9,24.1-57.4,24.1h-94.2v-9.2c6-0.6,10.8-1.9,13.8-3.9c2.9-2,4.8-5.6,5.8-11c1-5.4,1.4-14.2,1.4-26.4V696.3
		c0-12.2-0.3-21-1.3-26.4c-1-5.4-3-9.1-6-11c-3-2-7.7-3.2-13.7-3.9v-9.6l87.5,0.5c22.7,0,40,6.9,52,20.7c12,13.8,18,32.1,18,55
		c0,18.5-4.7,35.7-14.3,51.8c-9.5,16.1-23.2,27-42.2,32.8v0.9c24,3.3,42.5,12.9,54,28.9c11.5,16,17.3,34.8,17.3,56.7
		C500.8,922.3,493.9,945.2,480.1,961.4z M518.5,985.5v-9.2c7-0.6,10.9-1.9,13.9-3.9c2.9-2,5.2-5.6,6.3-11c1-5.4,1.8-14.2,1.8-26.4
		V696.3c0-12.2-0.7-21-1.7-26.4c-1-5.4-3.3-9.1-6.3-11c-3-2-7-3.2-14-3.9v-9.5h151.8c-1.3,27-1.9,50.4-1.9,71.3
		c0,14.1,0.3,24.7,0.8,32.7h-6.5c-2.9-35-7.9-58.4-15.3-72.2c-7.3-13.8-17.7-20.8-31.2-20.8h-11.6c-5.8,0-10,0.8-12.7,2.4
		c-2.7,1.6-4.3,4.8-5.2,9.4c-0.9,4.6-1.2,12.1-1.2,22.4v118.8h8.6c10,0,17.7-6,22.9-18.5c5.2-12.4,8.8-27.5,10.9-44.5h6.5
		c-0.6,13-0.9,28.5-0.9,45.2v23c0,16.3,0.6,38.8,1.7,68.8h-6.5c-4-43-15.5-64-34.6-64h-8.6v121.1c0,10.3,0.3,17.8,1.2,22.4
		c0.9,4.6,2.6,7.6,5.3,9.2c2.7,1.6,6.8,2.3,12.6,2.3h14c13.4,0,24.1-7.6,32.4-23.2c8.2-15.6,14-41.8,17.4-78.8h6.5
		c-0.6,10-0.8,23.7-0.8,40.2c0,29.4,0.6,53.8,1.9,72.8H518.5z M641.5,242.5v115.3c0,12.2,0.4,21,1.4,26.4c1,5.4,2.9,9.1,5.8,11
		c2.9,2,7.8,3.3,13.8,3.9v9.4h-87v-9.4c6-0.6,10.5-1.9,13.5-3.9c2.9-2,5-5.6,6-11c1-5.4,1.6-14.2,1.6-26.4V119.1
		c0-12.2-0.7-21-1.7-26.4c-1-5.4-2.8-9.1-5.8-11c-3-2-7.5-3.2-13.5-3.9v-9.3h87v9.3c-6,0.6-11,1.9-13.9,3.9c-2.9,2-4.7,5.6-5.7,11
		c-1,5.4-1.4,14.2-1.4,26.4v113.4h75V119.1c0-12.2-0.6-21-1.7-26.4c-1.1-5.4-2.9-9.1-5.8-11c-2.9-2-7.6-3.2-13.6-3.9v-9.3h87v9.3
		c-6,0.6-11,1.9-13.9,3.9c-2.8,2-4.6,5.6-5.7,11c-1.1,5.4-1.5,14.2-1.5,26.4v238.6c0,12.2,0.4,21,1.5,26.4c1.1,5.4,2.9,9.1,5.7,11
		c2.8,2,7.8,3.3,13.8,3.9v9.4h-87v-9.4c6-0.6,10.6-1.9,13.5-3.9c2.9-2,4.9-5.6,5.9-11c1.1-5.4,1.6-14.2,1.6-26.4V242.5H641.5z
		 M869.4,763.5h-6.5c-4.6-39-10.8-67-18.7-83.1c-7.8-16-18.5-23.9-32.1-23.9h-6.7v274.7c0,13.5,0.9,23.2,2.5,29.2
		c1.6,6,4.3,10.1,8.3,12.2c4.1,2.1,11.2,3.3,19.2,3.6v9.2h-105v-9.2c9-0.3,15.2-1.5,19.3-3.6c4.1-2.1,6.8-6.2,8.4-12.2
		c1.6-6,2.3-15.8,2.3-29.2V656.5h-6.1c-9,0-16.7,3.3-23,10.1c-6.3,6.7-11.8,17.7-16.3,33.3c-4.6,15.6-8.5,36.6-11.7,63.6h-6.5
		c0.6-9,1-21.4,1-36.5c0-24-0.7-51.5-2.1-81.5h174.7c-1.4,30-2.1,57.6-2.1,81.5C868.4,742.1,868.7,754.5,869.4,763.5z M1074.1,763.5
		h-6.5c-4.6-39-10.8-67-18.7-83.1c-7.8-16-18.5-23.9-32.1-23.9h-6.4v274.7c0,13.5,0.8,23.2,2.4,29.2c1.6,6,4.3,10.1,8.4,12.2
		c4.1,2.1,10.2,3.3,19.2,3.6v9.2h-105v-9.2c8-0.3,15.1-1.5,19.1-3.6c4.1-2.1,6.9-6.2,8.5-12.2c1.6-6,2.4-15.8,2.4-29.2V656.5h-6.4
		c-9,0-16.7,3.3-23,10.1c-6.3,6.7-11.8,17.7-16.3,33.3c-4.6,15.6-8.5,36.6-11.7,63.6h-6.5c0.6-9,1-21.4,1-36.5
		c0-24-0.7-51.5-2.1-81.5h174.7c-1.4,30-2.1,57.6-2.1,81.5C1073.2,742.1,1073.5,754.5,1074.1,763.5z M1092.5,985.5v-9.2
		c6-0.6,10.6-1.9,13.6-3.9c2.9-2,4.9-5.6,5.9-11c1-5.4,1.5-14.2,1.5-26.4V696.3c0-12.2-0.6-21-1.6-26.4c-1-5.4-2.9-9.1-5.8-11
		c-3-2-7.6-3.2-13.6-3.9v-9.5h151.1c-1.3,27-1.9,50.4-1.9,71.3c0,14.1,0.3,24.7,0.8,32.7h-6.5c-2.9-35-7.9-58.4-15.3-72.2
		c-7.3-13.8-17.7-20.8-31.2-20.8H1178c-5.8,0-10,0.8-12.7,2.4c-2.7,1.6-4.5,4.8-5.4,9.4c-0.9,4.6-1.4,12.1-1.4,22.4v118.8h9
		c10,0,17.7-6,22.9-18.5c5.2-12.4,8.8-27.5,10.9-44.5h6.5c-0.6,13-1.2,28.5-1.2,45.2v23c0,16.3,0.9,38.8,2,68.8h-6.5
		c-4-43-15.5-64-34.6-64h-9v121.1c0,10.3,0.4,17.8,1.4,22.4c0.9,4.6,2.7,7.6,5.4,9.2c2.7,1.6,6.9,2.3,12.7,2.3h14
		c13.4,0,24.1-7.6,32.4-23.2c8.2-15.6,14-41.8,17.4-78.8h6.5c-0.6,10-0.8,23.7-0.8,40.2c0,29.4,0.6,53.8,1.9,72.8H1092.5z
		 M1243.9,241.3c0-35.2,4.2-66.5,12.7-93.7c8.5-27.2,20.3-48.4,35.5-63.5c15.2-15.1,32.5-22.7,52-22.7c20,0,37.5,6.9,52.5,20.7
		c15,13.8,26.7,33.7,35,59.9c8.3,26.2,12.4,57.4,12.4,93.7c0,35.2-4.2,66.5-12.7,93.7c-8.5,27.2-20.3,48.4-35.5,63.5
		c-15.2,15.1-32.5,22.7-52,22.7c-20,0-37.5-6.9-52.5-20.7c-15-13.8-26.7-33.7-35-59.9C1248.1,308.8,1243.9,277.6,1243.9,241.3z
		 M1460.5,985.5h-59.7c-10-57-18-99.1-23.7-123.9c-5.8-24.9-12.7-37.1-20.8-37.1h-18.8V935c0,12.2,0.7,21,1.7,26.4
		c1,5.4,3.3,9.1,6.1,11c2.9,2,7.1,3.3,14.1,3.9v9.2h-88v-9.2c6-0.6,10.8-1.9,13.8-3.9c2.9-2,4.8-5.6,5.8-11c1-5.4,1.4-14.2,1.4-26.4
		V696.3c0-12.2-0.3-21-1.3-26.4c-1-5.4-3-9.1-6-11c-3-2-7.7-3.2-13.7-3.9v-9.5h87.6c26.1,0,45.7,7.6,58.8,22
		c13.1,14.4,19.7,35,19.7,62c0,22.9-4.9,42.9-14.7,60.2c-9.8,17.3-26.1,28.2-48.7,32.8c17,2.5,30,10.3,39,23.5
		c9,13.2,16.6,35.1,22.6,65.9c6,30.8,10.3,48.4,13.4,53c3,4.5,7.4,8.4,11.4,11.5V985.5z M1538.9,982.9c-4.3,6.6-10.2,9.9-17.6,9.9
		c-7.4,0-13.2-3.3-17.6-9.9c-4.3-6.6-6.5-15.7-6.5-27.2c0-11.6,2.2-20.7,6.5-27.2c4.3-6.6,10.2-9.9,17.6-9.9
		c7.4,0,13.2,3.3,17.6,9.9c4.3,6.6,6.5,15.7,6.5,27.2C1545.4,967.2,1543.3,976.3,1538.9,982.9z M1567.3,813.3
		c-14.8,15-33.4,25.6-55.9,31.7l9.1,39.5l-5.7,3.8l-11.6-47.4c16.2-8.1,27.9-18.7,35-31.7c7.1-13,10.7-29.6,10.7-49.8
		c0-20.8-2.8-36.6-8.3-47.3c-5.5-10.7-13.1-16.1-22.8-16.1c-6,0-11.6,1.3-16.7,3.8c-5.3,2.7-8.3,6.4-9.3,11.3
		c10.1,5.3,15.2,16.7,15.2,34.1c0,9.6-2,17.5-6.1,23.7c-4.1,6.3-9.2,9.4-15.3,9.4c-5.7,0-10.4-3.2-14-9.6
		c-3.6-6.4-5.4-14.2-5.4-23.5c0-19.3,6.5-34.4,19.6-45.3c10.5-8.6,23-12.9,37.6-12.9c19.8,0,35.8,6.1,47.8,18.3
		c12.1,12.2,18.1,28.9,18.1,50C1589.5,778.9,1582.1,798.3,1567.3,813.3z M1655.9,329.3c-8.5,27.2-20.3,48.4-35.5,63.5
		c-15.2,15.1-32.5,22.7-52,22.7c-20,0-37.5-6.9-52.5-20.7c-15-13.8-26.7-33.7-35-59.9c-8.3-26.1-12.4-57.4-12.4-93.7
		c0-35.2,4.2-66.5,12.7-93.7c8.5-27.2,20.3-48.4,35.5-63.5c15.2-15.1,32.5-22.7,52-22.7c20,0,37.5,6.9,52.5,20.7
		c15,13.8,26.7,33.7,35,59.9c8.3,26.2,12.4,57.4,12.4,93.7C1668.6,270.9,1664.4,302.1,1655.9,329.3z M1885.5,408.5h-80v-9.4
		c5-0.6,9.3-1.6,11.6-2.8c2.3-1.3,3.6-3.5,3.6-6.8c0-2.5-1-6.5-3.2-12l-41.1-113c-3.8-10.3-7-17.3-9.6-20.8
		c-2.5-3.5-5.4-5.6-10.4-6.2v120.3c0,12.2,0.6,21,1.6,26.4c1,5.4,2.8,9.1,5.7,11c2.9,2,7.7,3.3,13.7,3.9v9.4h-87v-9.4
		c6-0.6,10.7-1.9,13.7-3.9c2.9-2,4.9-5.6,5.9-11c1-5.4,1.5-14.2,1.5-26.4V119.1c0-12.2-0.5-21-1.5-26.4c-1-5.4-2.9-9.1-5.9-11
		c-3-2-7.6-3.2-13.6-3.9v-9.3h87v9.3c-6,0.6-10.8,1.9-13.7,3.9c-2.9,2-4.8,5.6-5.8,11c-1,5.4-1.5,14.2-1.5,26.4v108.3
		c8-0.6,14.5-4.5,20.8-11.5c6.2-7,13.3-18.3,21.3-33.8l16.8-34.1c8.7-17.1,13-31.9,13-44.6c0-7.8-1.7-14-5.4-18.4
		c-3.7-4.5-9.4-7-15.4-7.6v-8.8h68v8.8c-15,6.1-28.6,21.5-40.9,46.3l-35.3,71.6l66,174.5c2.9,7.4,5.7,13.3,8.7,17.8
		c3,4.5,7.5,8.4,11.5,11.5V408.5z"/>
</g>
</svg>
